<svg xmlns="http://www.w3.org/2000/svg" data-name="Layer 1" viewBox="0 0 24 24" x="0px" y="0px"><defs><style>.cls-1{fill:#231f20;}</style></defs><title>ThinEmoticons_bb</title><circle class="cls-1" cx="14.55" cy="9.42" r="0.75"></circle><circle class="cls-1" cx="8.56" cy="9.42" r="0.75"></circle><path class="cls-1" d="M11.56,21.5a9.5,9.5,0,1,1,9.5-9.5A9.51,9.51,0,0,1,11.56,21.5Zm0-18a8.5,8.5,0,1,0,8.5,8.5A8.51,8.51,0,0,0,11.56,3.5Z"></path><path class="cls-1" d="M14.38,16.92a.5.5,0,0,1-.35-.15,3.58,3.58,0,0,0-4.94,0,.5.5,0,0,1-.71-.71,4.5,4.5,0,0,1,6.35,0,.5.5,0,0,1-.35.85Z"></path></svg>