<svg xmlns="http://www.w3.org/2000/svg" data-name="Layer 1" viewBox="0 0 24 24" x="0px" y="0px"><defs><style>.cls-1{fill:#231f20;}</style></defs><title>ThinEmoticons_bb</title><path class="cls-1" d="M12,18.32a3.69,3.69,0,0,1-1.69-.42,3,3,0,0,1-1.65-2.73V14a.5.5,0,0,1,.5-.5h5.67a.5.5,0,0,1,.5.5v1A3.34,3.34,0,0,1,12,18.32ZM9.66,14.48v.69A2.08,2.08,0,0,0,10.77,17a2.7,2.7,0,0,0,1.23.31A2.34,2.34,0,0,0,14.33,15v-.51Z"></path><path class="cls-1" d="M9.62,10.48a.5.5,0,0,1-.43-.25,1.46,1.46,0,0,0-2.58,0,.5.5,0,0,1-.87-.5,2.46,2.46,0,0,1,4.31,0,.5.5,0,0,1-.43.75Z"></path><path class="cls-1" d="M17.83,10.48a.5.5,0,0,1-.43-.25,1.46,1.46,0,0,0-2.58,0,.5.5,0,0,1-.87-.5,2.46,2.46,0,0,1,4.31,0,.5.5,0,0,1-.43.75Z"></path><path class="cls-1" d="M12,21.5A9.5,9.5,0,1,1,21.5,12,9.51,9.51,0,0,1,12,21.5Zm0-18A8.5,8.5,0,1,0,20.5,12,8.51,8.51,0,0,0,12,3.5Z"></path></svg>