<svg xmlns="http://www.w3.org/2000/svg" xmlns:xlink="http://www.w3.org/1999/xlink" version="1.1" x="0px" y="0px" viewBox="0 0 100 100" style="enable-background:new 0 0 100 100;" xml:space="preserve"><path d="M12.3,98.2L25,78.8c-7.9-5.7-13.6-14-16.1-23.5C2.9,32.7,16.5,9.5,39.1,3.5c22.6-5.9,45.8,7.6,51.7,30.2  c5.9,22.6-7.6,45.8-30.2,51.7L12.3,98.2z M49.8,7.1c-3.1,0-6.3,0.4-9.5,1.2C20.4,13.6,8.5,34.1,13.7,54c2.4,9.1,8.1,16.9,16,22  l2.1,1.4L23.6,90l35.8-9.4C79.3,75.4,91.2,54.9,86,35C81.6,18.3,66.4,7.1,49.8,7.1z"></path><path d="M53.2,48.6C58.6,47,62.6,42,62.6,36c0-7.3-5.9-13.2-13.2-13.2S36.2,28.7,36.2,36h7.5c0-3.1,2.5-5.7,5.7-5.7  c3.1,0,5.7,2.5,5.7,5.7c0,3.1-2.5,5.7-5.7,5.7h-3.8v10.7h7.5V48.6z"></path><rect x="45.6" y="57.1" width="7.5" height="6.4"></rect></svg>