<svg xmlns="http://www.w3.org/2000/svg" data-name="Layer 1" viewBox="0 0 128 128" x="0px" y="0px"><title>Modern Business 4 expandlines</title><path d="M128,66.64355C128,61.15039,124.35555,58,118.00023,58H76.78731c1.97066-6.69092,5.14344-21.48828,4.81239-24.70605-.97654-9.34717-3.08489-20.53271-10.76635-24.082a11.69791,11.69791,0,0,0-5.58288-1.19873A11.18721,11.18721,0,0,0,58.735,10.76563c-4.40615,3.69531-4.15029,8.97119-3.92471,13.626.0498,1.03809.09765,2.019.09765,2.97656v5.37256c0,3.26074-10.448,20.38428-14.3815,26.83057-1.93355,3.16846-3.01653,4.94971-3.49308,5.85742-.22393.178-.61253.45343-1.11509.79462A7.21022,7.21022,0,0,0,28.83139,60H7.17368A7.23227,7.23227,0,0,0,.00295,67.27637v53.44727A7.232,7.232,0,0,0,7.17368,128h21.6577a7.1803,7.1803,0,0,0,6.69034-4.679,4.1759,4.1759,0,0,1,1.4628.17316,16.2766,16.2766,0,0,1,3.24895,1.85547,17.083,17.083,0,0,0,4.913,2.55957,1.9999,1.9999,0,0,0,.542.0752L104.79155,128a10.49436,10.49436,0,0,0,8.0047-17.334,10.49584,10.49584,0,0,0,4.98426-17.31543,10.49347,10.49347,0,0,0,3.88858-17.08691A10.50853,10.50853,0,0,0,128,66.64355ZM32.00221,120.72363A3.22877,3.22877,0,0,1,28.83139,124H7.17368a3.22877,3.22877,0,0,1-3.17083-3.27637V67.27637A3.22877,3.22877,0,0,1,7.17368,64h21.6577a3.22877,3.22877,0,0,1,3.17083,3.27637Zm85.45116-47.585h-2.122a2.00025,2.00025,0,0,0-.30175,3.97754,6.4924,6.4924,0,0,1-.99509,12.917h-3.58781a2,2,0,0,0-.08691,3.998,6.49651,6.49651,0,0,1-.27538,12.98828h-4.90907a2,2,0,0,0-.08887,3.998A6.49367,6.49367,0,0,1,104.79253,124l-58.80626-.01562a15.07857,15.07857,0,0,1-3.5214-1.9541A19.429,19.429,0,0,0,38.38,119.74609a7.32427,7.32427,0,0,0-2.37787-.42242V70.971c4.096-2.6441,4.29757-3.07739,4.50087-3.5423.23242-.52051,1.789-3.07227,3.4384-5.77393,9.4783-15.53564,14.96645-25.24707,14.96645-28.91406V27.36816c0-1.05469-.05176-2.12988-.10254-3.17041-.207-4.26465-.38573-7.94727,2.496-10.36328a7.35849,7.35849,0,0,1,4.15811-1.82666,7.80484,7.80484,0,0,1,3.68742.83105C75.76,15.89453,77.1125,28.8374,77.62128,33.70654c.331,3.22363-4.21279,22.97852-5.30359,25.21436A1.99987,1.99987,0,0,0,74.00124,62h43.999c5.99986,0,5.99986,3.374,5.99986,4.64355A6.52844,6.52844,0,0,1,117.45337,73.13867Z"></path><path d="M6.87681,41.90771,5.496,50.35205a3.07819,3.07819,0,0,0,1.125,3.1626,2.67278,2.67278,0,0,0,1.5566.48926,3.52281,3.52281,0,0,0,1.70406-.47607l7.12093-3.92334,7.11312,3.91895a2.9926,2.9926,0,0,0,3.26848-.00879,3.07729,3.07729,0,0,0,1.125-3.16162L27.1283,41.90771l5.83678-5.96484a3.09763,3.09763,0,0,0,.89744-3.18408,3.043,3.043,0,0,0-2.581-1.97559L23.29733,29.564,19.70757,21.936a2.85773,2.85773,0,0,0-5.41,0L10.70778,29.564,2.72457,30.7832a3.04318,3.04318,0,0,0-2.582,1.97559A3.1001,3.1001,0,0,0,1.042,35.94531Zm6.54184-8.71094L17.00353,25.583l3.58293,7.61377,8.23809,1.2583L22.855,40.55615l1.3818,8.46729-7.23421-3.98535L9.7664,49.02393l1.38376-8.46777L5.18154,34.4541Z"></path><path d="M29.07162,14.21484l-.76268,4.668A2.64974,2.64974,0,0,0,29.31282,21.563,2.3989,2.3989,0,0,0,30.70634,22a2.90431,2.90431,0,0,0,1.40915-.38281l3.88663-2.14111,3.87979,2.13721a2.59757,2.59757,0,0,0,2.80951-.05029A2.64931,2.64931,0,0,0,43.6953,18.8833l-.76268-4.66846,3.21965-3.29a2.668,2.668,0,0,0,.72459-2.72314A2.63317,2.63317,0,0,0,44.6904,6.479l-4.369-.667L38.34875,1.62109a2.509,2.509,0,0,0-4.69325,0L31.68288,5.812l-4.369.667a2.63317,2.63317,0,0,0-2.18647,1.72266,2.66924,2.66924,0,0,0,.72655,2.7251Zm5.32214-4.77,1.60836-3.417,1.60836,3.417,3.82218.5835-2.77337,2.835.62987,3.85693-3.287-1.81055-3.287,1.81055.62987-3.85693-2.77337-2.835Z"></path><path d="M18.00253,104a7,7,0,1,0,6.99984,7A7.00841,7.00841,0,0,0,18.00253,104Zm0,10a3,3,0,1,1,2.99993-3A3.00325,3.00325,0,0,1,18.00253,114Z"></path></svg>