<svg xmlns="http://www.w3.org/2000/svg" xmlns:xlink="http://www.w3.org/1999/xlink" version="1.1" x="0px" y="0px" viewBox="0 0 100 100" style="enable-background:new 0 0 100 100;" xml:space="preserve"><style type="text/css">
	.st0{fill:none;stroke:#000000;stroke-width:2;stroke-linecap:round;stroke-linejoin:round;stroke-miterlimit:10;}
	.st1{stroke:#000000;stroke-width:0.5;stroke-linecap:round;stroke-linejoin:round;stroke-miterlimit:10;}
	.st2{stroke:#000000;stroke-width:0.25;stroke-linecap:round;stroke-linejoin:round;stroke-miterlimit:10;}
	.st3{fill:none;stroke:#000000;stroke-width:2;stroke-miterlimit:10;}
</style><path d="M44.7,15.2c-0.5-0.3-1.1-0.1-1.4,0.4c-0.3,0.5-0.1,1.1,0.4,1.4c5.1,2.8,8.4,9.1,8.5,16c0,3.4-0.7,6.8-2.2,9.7  c-0.2,0.5,0,1.1,0.4,1.3c0.1,0.1,0.3,0.1,0.4,0.1c0.4,0,0.7-0.2,0.9-0.6c1.6-3.2,2.4-6.8,2.4-10.6C54.1,25.4,50.4,18.4,44.7,15.2z"></path><path d="M70.4,37.4c3.6,2,5.9,6.4,6,11.3c0,2.4-0.5,4.8-1.5,6.9c-0.2,0.5,0,1.1,0.4,1.3c0.1,0.1,0.3,0.1,0.4,0.1  c0.4,0,0.7-0.2,0.9-0.6c1.2-2.3,1.8-5,1.7-7.8c-0.1-5.6-2.8-10.8-7-13.1c-0.5-0.3-1.1-0.1-1.4,0.4C69.7,36.6,69.9,37.2,70.4,37.4z"></path><path d="M73.2,91.1c-0.2,0.5,0.1,1.1,0.7,1.2c0.1,0,0.2,0,0.3,0c0.4,0,0.8-0.3,1-0.7c1.1-3.5,1.6-7.6-2.2-11.3  c-4.2-4.1-4.6-8.2-4.6-9.4c0.8,0,1.6-0.4,2-1c0.4-0.5,0.5-1.2,0.3-1.9l-0.2-0.9c7.1-1.4,12-8.9,11.9-18.3  c-0.1-10.1-6.9-18.3-15.2-18.3c-0.1,0-0.1,0-0.2,0c-2.9,0-5.2,0.8-7.3,2.3C59.5,19.3,50.4,8.3,39.2,8.3c-0.1,0-0.1,0-0.2,0  c-5.5,0.1-10.7,2.8-14.5,7.6c-3.8,4.8-5.8,11.1-5.7,17.8c0.2,12.5,7.9,23.1,17.9,24.7l-0.5,1.1c-0.4,0.9-0.3,1.8,0.2,2.6  c0.5,0.8,1.3,1.2,2.2,1.3c0,1.1,0,6.2,5.2,11.1c7,6.7,3.9,16.1,3.8,16.5c-0.2,0.5,0.1,1.1,0.6,1.3c0.1,0,0.2,0.1,0.3,0.1  c0.4,0,0.8-0.3,0.9-0.7c0.2-0.4,3.6-10.9-4.3-18.5c-4.8-4.6-4.6-9.2-4.5-9.6h0.1c0.9,0,1.8-0.5,2.3-1.3c0.5-0.8,0.6-1.8,0.2-2.6  l-0.5-1.1c3.8-0.7,7.2-2.7,10-5.6c1.2,7.7,5.9,13.4,12,14.5l-0.2,0.8c-0.1,0.7,0,1.4,0.5,1.9c0.4,0.5,0.9,0.8,1.5,0.9  c0,1.5,0.4,6.2,5.2,10.8C74.6,84.7,74.1,88,73.2,91.1z M41,56.7c-0.3,0-0.6,0.2-0.8,0.5c-0.2,0.3-0.2,0.6,0,0.9l1.1,2.4  c0.2,0.3,0,0.6,0,0.7c-0.1,0.1-0.3,0.3-0.6,0.3h-2c-0.4,0-0.6-0.2-0.6-0.3c-0.1-0.1-0.2-0.4,0-0.7l1.1-2.3c0.1-0.3,0.1-0.6,0-0.9  c-0.2-0.3-0.5-0.5-0.8-0.5c-9.6-0.8-17.3-10.8-17.5-22.9c-0.1-6.2,1.8-12.1,5.3-16.6c3.4-4.4,8-6.8,13-6.9c0.1,0,0.1,0,0.2,0  c10.1,0,18.5,10.3,18.6,23C58,45.4,50.6,55.7,41,56.7z M66.8,69c-0.2,0-0.4-0.1-0.4-0.2c-0.1-0.1-0.1-0.2-0.1-0.2l0.5-1.9  c0.1-0.3,0-0.6-0.2-0.8s-0.4-0.4-0.7-0.4c-6.2-0.5-11-6.5-11.6-14.7c3.1-4.1,5.1-9.3,5.5-15.2c2.1-2,4.3-2.9,7.3-3  c7.2-0.1,13.2,7.2,13.3,16.3c0.1,8.9-4.6,15.8-11.3,16.5c-0.3,0-0.6,0.2-0.7,0.4s-0.2,0.5-0.1,0.8l0.5,2c0,0.1,0,0.2,0,0.2  c-0.1,0.1-0.2,0.2-0.5,0.2H66.8z"></path><path d="M15.6,56.2c0,0.1,0,0.2,0.1,0.2c0.1,0.1,0.2,0.1,0.3,0l1.3-0.7l1.3,0.7c0,0,0.1,0,0.1,0c0.1,0,0.1,0,0.1,0  c0.1-0.1,0.1-0.1,0.1-0.2l-0.2-1.4l1.1-1c0.1-0.1,0.1-0.2,0.1-0.3s-0.1-0.2-0.2-0.2l-1.4-0.2l-0.6-1.3c0-0.1-0.1-0.1-0.2-0.1  c-0.1,0-0.2,0-0.2,0.1l-0.7,1.3L15,53.3c-0.1,0-0.2,0.1-0.2,0.2c0,0.1,0,0.2,0.1,0.3l1,1L15.6,56.2z"></path><path d="M16.3,22.3c0,0,0.1,0,0.1,0c0.1,0,0.1,0,0.1,0c0.1-0.1,0.1-0.1,0.1-0.2l-0.2-1.4l1.1-1c0.1-0.1,0.1-0.2,0.1-0.3  s-0.1-0.2-0.2-0.2l-1.4-0.2l-0.6-1.3c0-0.1-0.1-0.1-0.2-0.1c-0.1,0-0.2,0.1-0.2,0.1l-0.7,1.3l-1.4,0.2c-0.1,0-0.2,0.1-0.2,0.2  c0,0.1,0,0.2,0.1,0.3l1,1l-0.3,1.4c0,0.1,0,0.2,0.1,0.2c0.1,0.1,0.2,0.1,0.3,0l1.3-0.7L16.3,22.3z"></path><path d="M87.4,26.7l-1.4-0.2l-0.6-1.3c0-0.1-0.1-0.1-0.2-0.1c0,0,0,0,0,0c-0.1,0-0.2,0.1-0.2,0.1l-0.7,1.3l-1.4,0.2  c-0.1,0-0.2,0.1-0.2,0.2c0,0.1,0,0.2,0.1,0.3l1,1l-0.3,1.4c0,0.1,0,0.2,0.1,0.2c0.1,0.1,0.2,0.1,0.3,0l1.3-0.7l1.3,0.7  c0,0,0.1,0,0.1,0c0.1,0,0.1,0,0.1,0c0.1-0.1,0.1-0.1,0.1-0.2l-0.2-1.4l1.1-1c0.1-0.1,0.1-0.2,0.1-0.3S87.4,26.8,87.4,26.7z"></path><path d="M84.5,70.3l-0.1-2.6c0-0.1-0.1-0.2-0.1-0.2c-0.1,0-0.2,0-0.3,0l-2,1.7l-2.5-0.7c-0.1,0-0.2,0-0.3,0.1s-0.1,0.2,0,0.3l1,2.4  l-1.4,2.2c-0.1,0.1-0.1,0.2,0,0.3c0,0.1,0.1,0.1,0.2,0.1l2.6-0.2l1.6,2c0,0.1,0.1,0.1,0.2,0.1c0,0,0,0,0.1,0c0.1,0,0.2-0.1,0.2-0.2  l0.6-2.5l2.5-0.9c0.1,0,0.2-0.1,0.2-0.2c0-0.1,0-0.2-0.1-0.2L84.5,70.3z"></path><path d="M17.1,68.7c0,0.1,0.1,0.1,0.2,0.1l2.6-0.2l1.6,2c0,0.1,0.1,0.1,0.2,0.1c0,0,0,0,0.1,0c0.1,0,0.2-0.1,0.2-0.2l0.6-2.5  l2.5-0.9c0.1,0,0.2-0.1,0.2-0.2c0-0.1,0-0.2-0.1-0.2l-2.2-1.4l-0.1-2.6c0-0.1-0.1-0.2-0.1-0.2c-0.1,0-0.2,0-0.3,0l-2,1.7l-2.5-0.7  c-0.1,0-0.2,0-0.3,0.1c-0.1,0.1-0.1,0.2,0,0.3l1,2.4l-1.4,2.2C17.1,68.5,17.1,68.7,17.1,68.7z"></path><path d="M64.2,18c0,0.1,0.1,0.1,0.2,0.1L67,18l1.6,2c0,0.1,0.1,0.1,0.2,0.1c0,0,0,0,0.1,0c0.1,0,0.2-0.1,0.2-0.2l0.6-2.5l2.5-0.9  c0.1,0,0.2-0.1,0.2-0.2c0-0.1,0-0.2-0.1-0.2L70,14.6L69.9,12c0-0.1-0.1-0.2-0.1-0.2c-0.1,0-0.2,0-0.3,0l-2,1.7l-2.5-0.7  c-0.1,0-0.2,0-0.3,0.1c-0.1,0.1-0.1,0.2,0,0.3l1,2.4l-1.4,2.2C64.1,17.8,64.1,17.9,64.2,18z"></path></svg>