<svg xmlns="http://www.w3.org/2000/svg" viewBox="0 0 51.2 77.96" x="0px" y="0px"><title>Celebrate</title><g data-name="Layer 2"><g data-name="01 Happy New Year"><path d="M35.89,2.13A24.66,24.66,0,0,0,25.81,0,26.05,26.05,0,0,0,7.24,7.79,26,26,0,0,0,1.8,35.3a22.66,22.66,0,0,0,3.93,6.57A32.51,32.51,0,0,0,12.15,47,72.53,72.53,0,0,0,20,51.74c1.29.67,2.62,1.27,3.88,2,.23.13.46.3.7.44l-1.38,2.39-2.31,4h3.62V78h2V60.57h3.62l-2.31-4-1.38-2.4.47-.29c2.94-1.84,6.19-3.17,9.14-5A56,56,0,0,0,44,43.25C48.76,39,51.2,31.8,51.2,25.56A26.17,26.17,0,0,0,35.89,2.13ZM25.55,58.57H24.4l.58-1,.58-1,.58,1,.58,1ZM42.7,41.77A55.16,55.16,0,0,1,35,47.18c-1.39.87-2.85,1.61-4.39,2.4s-3.2,1.64-4.76,2.61l-.21.13-.13.08-.16-.11L24.93,52c-.88-.51-1.78-1-2.65-1.38L21,50a70.24,70.24,0,0,1-7.68-4.62l-.82-.56a26.42,26.42,0,0,1-5.21-4.23,20.59,20.59,0,0,1-3.58-6,23.86,23.86,0,0,1,5-25.38A24,24,0,0,1,25.81,2a22.54,22.54,0,0,1,9.26,2A24.07,24.07,0,0,1,49.2,25.56C49.2,31.85,46.65,38.21,42.7,41.77Z"></path><path d="M20,23.55c2.52,0,4.56-2.69,4.56-6h-2c0,2.37-1.35,4-2.56,4s-2.56-1.65-2.56-4h-2C15.43,20.86,17.47,23.55,20,23.55Z"></path><path d="M31.12,21.55c-1.21,0-2.56-1.65-2.56-4h-2c0,3.32,2,6,4.56,6s4.56-2.69,4.56-6h-2C33.68,19.9,32.33,21.55,31.12,21.55Z"></path><path d="M25.55,40.79A10.13,10.13,0,0,0,35.68,30.66H15.43A10.13,10.13,0,0,0,25.55,40.79Z"></path></g></g></svg>