<svg xmlns="http://www.w3.org/2000/svg" xmlns:xlink="http://www.w3.org/1999/xlink" version="1.1" x="0px" y="0px" viewBox="0 0 66 66" enable-background="new 0 0 66 66" xml:space="preserve"><g><path d="M43.6,20.8c-0.1-1.4-1.3-2.6-2.8-2.6h-3.3v-2.9c0-2.7-2.2-5-4.9-5c-0.6,0-1,0.4-1,1v4.6l-2.1,2.3c-0.7,0.1-1.4,0.3-2,0.6   c-0.4-0.7-1.1-1.1-1.9-1.1h-1.7c-1.4,0-2.5,1.1-2.5,2.5V32c0,1.4,1.1,2.5,2.5,2.5h1.7c0.8,0,1.5-0.5,1.9-1.1   c0.8,0.4,1.6,0.6,2.5,0.6h8.9c1.5,0,2.7-1.2,2.7-2.7c0-0.5-0.1-0.9-0.3-1.3c0.5-0.4,0.8-0.9,1-1.6c0.1-0.7,0-1.3-0.3-1.9   c0.6-0.5,1-1.2,1-1.9c0-0.5-0.1-1-0.3-1.5c0.1-0.1,0.2-0.2,0.3-0.2C43.3,22.3,43.6,21.6,43.6,20.8z M25.6,32.3   c0,0.1-0.1,0.1-0.1,0.1h-1.7c-0.3,0-0.5-0.2-0.5-0.5V20.1c0-0.3,0.2-0.5,0.5-0.5h1.7c0.1,0,0.1,0.1,0.1,0.1   C25.6,23.5,25.6,28.7,25.6,32.3z M41.4,21.4c-0.1,0.1-0.3,0.2-0.5,0.2h-0.7c-0.6,0-1,0.4-1,1s0.4,1,1,1c0.2,0,0.4,0.1,0.5,0.2   c0.1,0.1,0.2,0.3,0.2,0.5c0,0.4-0.4,0.7-0.8,0.7h-0.6c-0.6,0-1,0.4-1,1s0.4,1,1,1c0.2,0,0.4,0.1,0.6,0.3c0.1,0.1,0.2,0.3,0.1,0.6   c-0.1,0.3-0.4,0.6-0.8,0.6h-0.6c-0.6,0-1,0.4-1,1s0.4,1,1,1c0.4,0,0.7,0.3,0.7,0.7c0,0.4-0.3,0.7-0.7,0.7h-8.9   c-0.8,0-1.6-0.2-2.2-0.7V20.9c1.6-1.1,2.3-0.3,3-1l2.7-2.9c0.2-0.2,0.3-0.4,0.3-0.7v-3.8c1.1,0.4,1.9,1.5,1.9,2.8v3.9   c0,0.6,0.4,1,1,1h4.3c0.4,0,0.8,0.3,0.8,0.7C41.6,21.1,41.5,21.3,41.4,21.4z"></path><path d="M55.8,23.8C55.8,11.2,45.6,1,33,1S10.2,11.2,10.2,23.8c0,6.8,3,12.9,7.7,17.1l-6.7,18.8c-0.3,0.9,0.6,1.7,1.4,1.2l6.7-3.8   l2.8,7.2c0.3,0.9,1.6,0.8,1.9,0l6.4-17.8c0.9,0.1,1.8,0.2,2.6,0.2c0.6,0,1.2,0,1.8-0.1l6.3,17.7c0.3,0.9,1.5,0.9,1.9,0l2.8-7.2   l6.7,3.8c0.9,0.5,1.9-0.5,1.4-1.4l-6.4-18.1C52.6,37.3,55.8,31,55.8,23.8z M28.3,46.2L23,61.1l-2.3-5.8c-0.2-0.6-0.9-0.8-1.4-0.5   l-5.4,3.1l5.6-15.6C22,44.1,25.1,45.5,28.3,46.2z M51.2,57.9l-5.4-3.1c-0.3-0.1-0.6-0.2-0.8-0.1c-0.3,0.1-0.5,0.3-0.6,0.6l-2.3,5.8   l-5.3-14.8c3.1-0.5,6.2-1.7,9-3.6L51.2,57.9z M33,44.7c-11.4,0-20.8-9.3-20.8-20.8C12.2,12.3,21.5,3,33,3s20.8,9.3,20.8,20.8   C53.8,35.4,44.3,44.7,33,44.7z"></path><path d="M33,5.8c-10,0-18.1,8.1-18.1,18.1c0,10,8.1,18.1,18.1,18.1c10,0,18.1-8.1,18.1-18.1C51.1,13.9,43,5.8,33,5.8z M33,39.9   c-8.9,0-16.1-7.2-16.1-16.1C16.9,15,24.1,7.8,33,7.8c8.9,0,16.1,7.2,16.1,16.1C49.1,32.7,41.9,39.9,33,39.9z"></path></g></svg>