<svg xmlns="http://www.w3.org/2000/svg" xmlns:xlink="http://www.w3.org/1999/xlink" version="1.1" x="0px" y="0px" viewBox="0 0 100 100" enable-background="new 0 0 100 100" xml:space="preserve"><path d="M66.843,45.844V23.636c0-3.155-2.566-5.723-5.722-5.723s-5.722,2.567-5.722,5.723v19.057l-10.978-18.24  c-1.027-1.71-2.907-2.773-4.906-2.773c-1.035,0-2.054,0.283-2.945,0.819c-2.703,1.626-3.578,5.149-1.953,7.853l6.373,10.591  c-0.314-0.054-0.633-0.092-0.957-0.092c-1.035,0-2.055,0.284-2.945,0.82c-1.311,0.788-2.234,2.039-2.604,3.522  c-0.265,1.064-0.208,2.153,0.129,3.169c-0.38-0.08-0.768-0.132-1.162-0.132c-1.035,0-2.055,0.283-2.945,0.819  c-1.31,0.788-2.234,2.039-2.603,3.521c-0.369,1.484-0.138,3.021,0.649,4.332l2.578,4.283c-0.031,0.097-0.061,0.195-0.061,0.303  c0,11.357,9.24,20.598,20.599,20.598s20.599-9.24,20.599-20.598v-7.918C72.268,50.02,70.002,46.995,66.843,45.844z M61.121,19.914  c2.052,0,3.722,1.67,3.722,3.723v21.746c-0.266-0.026-0.533-0.041-0.806-0.041h-6.638V23.636  C57.399,21.583,59.069,19.914,61.121,19.914z M37.602,24.214c0.58-0.349,1.242-0.533,1.914-0.533c1.32,0,2.514,0.674,3.191,1.803  l11.952,19.857h-1.33c-1.795,0-3.093,0-4.075,0.572c-0.93,0.542-1.316,1.448-1.475,2.432L36.332,29.322  C35.273,27.563,35.844,25.271,37.602,24.214z M36.426,45.677c0.239-0.965,0.841-1.778,1.693-2.291  c0.58-0.349,1.242-0.534,1.914-0.534c1.32,0,2.513,0.674,3.191,1.804l4.867,8.09c1.059,1.758,0.49,4.049-1.266,5.107  c-0.581,0.349-1.243,0.533-1.916,0.533c-1.316,0-2.508-0.672-3.188-1.795L38.358,51c-0.003-0.006-0.009-0.011-0.012-0.017  l-1.499-2.489C36.336,47.642,36.186,46.641,36.426,45.677z M29.844,53.055c0.24-0.965,0.842-1.777,1.693-2.29  c0.58-0.349,1.242-0.533,1.914-0.533c1.314,0,2.504,0.669,3.185,1.788l3.368,5.596c0.001,0.002,0.003,0.004,0.004,0.006l1.506,2.502  c0.512,0.852,0.662,1.852,0.422,2.816s-0.841,1.779-1.693,2.291c-0.58,0.35-1.242,0.535-1.914,0.535  c-1.319,0-2.514-0.674-3.193-1.805l-4.867-8.088C29.754,55.021,29.604,54.02,29.844,53.055z M70.268,61.49  c0,10.254-8.344,18.598-18.599,18.598c-9.064,0-16.624-6.521-18.261-15.117l0.014,0.021c1.028,1.711,2.908,2.773,4.906,2.773  c1.037,0,2.056-0.283,2.946-0.822c1.31-0.787,2.233-2.037,2.603-3.521c0.264-1.063,0.209-2.152-0.128-3.168  c0.38,0.08,0.767,0.133,1.161,0.133l0,0c1.035,0,2.055-0.283,2.947-0.82c1.365-0.822,2.262-2.129,2.606-3.57  c0.969,0.856,2.138,1.492,3.43,1.817c-1.961,1.525-3.225,3.907-3.225,6.579c0,0.553,0.447,1,1,1s1-0.447,1-1  c0-3.49,2.839-6.33,6.329-6.33c0.553,0,1-0.448,1-1c0-0.553-0.447-1-1-1h-3.094c-3.436,0-6.23-2.795-6.23-6.23  c0-1.849,0.412-2.088,0.587-2.191c0.517-0.3,1.643-0.3,3.074-0.3h10.702c3.436,0,6.23,2.795,6.23,6.231V61.49z"></path></svg>